<?xml version="1.0" encoding="UTF-8"?>
<svg width="24px" height="24px" viewBox="0 0 24 24" version="1.1" xmlns="http://www.w3.org/2000/svg" xmlns:xlink="http://www.w3.org/1999/xlink">
    <g stroke="none" stroke-width="1" fill="none" fill-rule="evenodd">
        <path d="M12,2 C17.523,2 22,6.477 22,12 C22,17.523 17.523,22 12,22 C6.477,22 2,17.523 2,12 C2,6.477 6.477,2 12,2 Z M12,4 C7.582,4 4,7.582 4,12 C4,16.418 7.582,20 12,20 C16.418,20 20,16.418 20,12 C20,7.582 16.418,4 12,4 Z M16.707,8.707 L11,14.414 L8.293,11.707 C7.902,11.316 7.269,11.316 6.878,11.707 C6.487,12.098 6.487,12.731 6.878,13.122 L10.293,16.537 C10.683,16.928 11.317,16.928 11.707,16.537 L18.122,10.122 C18.513,9.731 18.513,9.098 18.122,8.707 C17.731,8.316 17.098,8.316 16.707,8.707 Z" fill="#000000"></path>
    </g>
</svg>
