<?xml version="1.0" encoding="UTF-8"?>
<svg width="24px" height="24px" viewBox="0 0 24 24" version="1.1" xmlns="http://www.w3.org/2000/svg" xmlns:xlink="http://www.w3.org/1999/xlink">
    <g stroke="none" stroke-width="1" fill="none" fill-rule="evenodd">
        <path d="M12,2 C17.523,2 22,6.477 22,12 C22,17.523 17.523,22 12,22 C6.477,22 2,17.523 2,12 C2,6.477 6.477,2 12,2 Z M12,4 C7.582,4 4,7.582 4,12 C4,16.418 7.582,20 12,20 C16.418,20 20,16.418 20,12 C20,7.582 16.418,4 12,4 Z M12,6 C14.761,6 17,8.239 17,11 L17,13 C17,14.105 16.105,15 15,15 L14,15 L14,11 C14,9.896 13.104,9 12,9 C10.896,9 10,9.896 10,11 L10,15 L9,15 C7.895,15 7,14.105 7,13 L7,11 C7,8.239 9.239,6 12,6 Z M12,16 C12.552,16 13,16.448 13,17 C13,17.552 12.552,18 12,18 C11.448,18 11,17.552 11,17 C11,16.448 11.448,16 12,16 Z" fill="#000000"></path>
    </g>
</svg>
