<?xml version="1.0" encoding="UTF-8"?>
<svg width="24px" height="24px" viewBox="0 0 24 24" version="1.1" xmlns="http://www.w3.org/2000/svg" xmlns:xlink="http://www.w3.org/1999/xlink">
    <g stroke="none" stroke-width="1" fill="none" fill-rule="evenodd">
        <path d="M12,2 C14.209,2 16,3.791 16,6 C16,8.209 14.209,10 12,10 C9.791,10 8,8.209 8,6 C8,3.791 9.791,2 12,2 Z M12,4 C10.895,4 10,4.895 10,6 C10,7.105 10.895,8 12,8 C13.105,8 14,7.105 14,6 C14,4.895 13.105,4 12,4 Z M12,11 C16.971,11 21,15.029 21,20 C21,20.552 20.552,21 20,21 L4,21 C3.448,21 3,20.552 3,20 C3,15.029 7.029,11 12,11 Z M12,13 C8.134,13 5,16.134 5,20 L19,20 C19,16.134 15.866,13 12,13 Z" fill="#000000"></path>
    </g>
</svg>
